<svg xmlns="http://www.w3.org/2000/svg" xmlns:xlink="http://www.w3.org/1999/xlink" version="1.1" class="marks" width="526" height="347" viewBox="0 0 526 347"><rect width="526" height="347" fill="white"/><g fill="none" stroke-miterlimit="10" transform="translate(44,10)"><g class="mark-group role-frame root" role="graphics-object" aria-roledescription="group mark container"><g transform="translate(0,0)"><path class="background" aria-hidden="true" d="M0.5,0.5h400v300h-400Z" stroke="#ddd"/><g><g class="mark-group role-axis" role="graphics-symbol" aria-roledescription="axis" aria-label="X-axis for a time scale with values from Monday, 29 March 2021, 10:00:00 AM to Tuesday, 20 April 2021, 1:00:00 PM"><g transform="translate(0.5,300.5)"><path class="background" aria-hidden="true" d="M0,0h0v0h0Z" pointer-events="none"/><g><g class="mark-rule role-axis-grid" pointer-events="none"><line transform="translate(29,-300)" x2="0" y2="300" stroke="#ddd" stroke-width="1" opacity="1"/><line transform="translate(47,-300)" x2="0" y2="300" stroke="#ddd" stroke-width="1" opacity="1"/><line transform="translate(83,-300)" x2="0" y2="300" stroke="#ddd" stroke-width="1" opacity="1"/><line transform="translate(119,-300)" x2="0" y2="300" stroke="#ddd" stroke-width="1" opacity="1"/><line transform="translate(155,-300)" x2="0" y2="300" stroke="#ddd" stroke-width="1" opacity="1"/><line transform="translate(191,-300)" x2="0" y2="300" stroke="#ddd" stroke-width="1" opacity="1"/><line transform="translate(227,-300)" x2="0" y2="300" stroke="#ddd" stroke-width="1" opacity="1"/><line transform="translate(264,-300)" x2="0" y2="300" stroke="#ddd" stroke-width="1" opacity="1"/><line transform="translate(300,-300)" x2="0" y2="300" stroke="#ddd" stroke-width="1" opacity="1"/><line transform="translate(336,-300)" x2="0" y2="300" stroke="#ddd" stroke-width="1" opacity="1"/><line transform="translate(372,-300)" x2="0" y2="300" stroke="#ddd" stroke-width="1" opacity="1"/></g></g><path class="foreground" aria-hidden="true" d="" pointer-events="none" display="none"/></g></g><g class="mark-group role-axis" role="graphics-symbol" aria-roledescription="axis" aria-label="Y-axis for a linear scale with values from 0 to 120"><g transform="translate(0.5,0.5)"><path class="background" aria-hidden="true" d="M0,0h0v0h0Z" pointer-events="none"/><g><g class="mark-rule role-axis-grid" pointer-events="none"><line transform="translate(0,300)" x2="400" y2="0" stroke="#ddd" stroke-width="1" opacity="1"/><line transform="translate(0,250)" x2="400" y2="0" stroke="#ddd" stroke-width="1" opacity="1"/><line transform="translate(0,200)" x2="400" y2="0" stroke="#ddd" stroke-width="1" opacity="1"/><line transform="translate(0,150)" x2="400" y2="0" stroke="#ddd" stroke-width="1" opacity="1"/><line transform="translate(0,100)" x2="400" y2="0" stroke="#ddd" stroke-width="1" opacity="1"/><line transform="translate(0,50)" x2="400" y2="0" stroke="#ddd" stroke-width="1" opacity="1"/><line transform="translate(0,0)" x2="400" y2="0" stroke="#ddd" stroke-width="1" opacity="1"/></g></g><path class="foreground" aria-hidden="true" d="" pointer-events="none" display="none"/></g></g><g class="mark-group role-axis" role="graphics-symbol" aria-roledescription="axis" aria-label="X-axis titled 'hourly' for a time scale with values from Monday, 29 March 2021, 10:00:00 AM to Tuesday, 20 April 2021, 1:00:00 PM"><g transform="translate(0.5,300.5)"><path class="background" aria-hidden="true" d="M0,0h0v0h0Z" pointer-events="none"/><g><g class="mark-rule role-axis-tick" pointer-events="none"><line transform="translate(29,0)" x2="0" y2="5" stroke="#888" stroke-width="1" opacity="1"/><line transform="translate(47,0)" x2="0" y2="5" stroke="#888" stroke-width="1" opacity="1"/><line transform="translate(83,0)" x2="0" y2="5" stroke="#888" stroke-width="1" opacity="1"/><line transform="translate(119,0)" x2="0" y2="5" stroke="#888" stroke-width="1" opacity="1"/><line transform="translate(155,0)" x2="0" y2="5" stroke="#888" stroke-width="1" opacity="1"/><line transform="translate(191,0)" x2="0" y2="5" stroke="#888" stroke-width="1" opacity="1"/><line transform="translate(227,0)" x2="0" y2="5" stroke="#888" stroke-width="1" opacity="1"/><line transform="translate(264,0)" x2="0" y2="5" stroke="#888" stroke-width="1" opacity="1"/><line transform="translate(300,0)" x2="0" y2="5" stroke="#888" stroke-width="1" opacity="1"/><line transform="translate(336,0)" x2="0" y2="5" stroke="#888" stroke-width="1" opacity="1"/><line transform="translate(372,0)" x2="0" y2="5" stroke="#888" stroke-width="1" opacity="1"/></g><g class="mark-text role-axis-label" pointer-events="none"><text text-anchor="middle" transform="translate(28.625235404896422,15)" font-family="sans-serif" font-size="10px" fill="#000" opacity="1">Wed 31</text><text text-anchor="middle" transform="translate(46.70433145009416,15)" font-family="sans-serif" font-size="10px" fill="#000" opacity="0">April</text><text text-anchor="middle" transform="translate(82.86252354048965,15)" font-family="sans-serif" font-size="10px" fill="#000" opacity="1">Sat 03</text><text text-anchor="middle" transform="translate(119.02071563088512,15)" font-family="sans-serif" font-size="10px" fill="#000" opacity="0">Mon 05</text><text text-anchor="middle" transform="translate(155.1789077212806,15)" font-family="sans-serif" font-size="10px" fill="#000" opacity="1">Wed 07</text><text text-anchor="middle" transform="translate(191.33709981167607,15)" font-family="sans-serif" font-size="10px" fill="#000" opacity="0">Fri 09</text><text text-anchor="middle" transform="translate(227.49529190207159,15)" font-family="sans-serif" font-size="10px" fill="#000" opacity="1">Apr 11</text><text text-anchor="middle" transform="translate(263.65348399246705,15)" font-family="sans-serif" font-size="10px" fill="#000" opacity="0">Tue 13</text><text text-anchor="middle" transform="translate(299.81167608286256,15)" font-family="sans-serif" font-size="10px" fill="#000" opacity="1">Thu 15</text><text text-anchor="middle" transform="translate(335.969868173258,15)" font-family="sans-serif" font-size="10px" fill="#000" opacity="0">Sat 17</text><text text-anchor="middle" transform="translate(372.1280602636535,15)" font-family="sans-serif" font-size="10px" fill="#000" opacity="1">Mon 19</text></g><g class="mark-rule role-axis-domain" pointer-events="none"><line transform="translate(0,0)" x2="400" y2="0" stroke="#888" stroke-width="1" opacity="1"/></g><g class="mark-text role-axis-title" pointer-events="none"><text text-anchor="middle" transform="translate(200,30)" font-family="sans-serif" font-size="11px" font-weight="bold" fill="#000" opacity="1">hourly</text></g></g><path class="foreground" aria-hidden="true" d="" pointer-events="none" display="none"/></g></g><g class="mark-group role-axis" role="graphics-symbol" aria-roledescription="axis" aria-label="Y-axis titled 'count' for a linear scale with values from 0 to 120"><g transform="translate(0.5,0.5)"><path class="background" aria-hidden="true" d="M0,0h0v0h0Z" pointer-events="none"/><g><g class="mark-rule role-axis-tick" pointer-events="none"><line transform="translate(0,300)" x2="-5" y2="0" stroke="#888" stroke-width="1" opacity="1"/><line transform="translate(0,250)" x2="-5" y2="0" stroke="#888" stroke-width="1" opacity="1"/><line transform="translate(0,200)" x2="-5" y2="0" stroke="#888" stroke-width="1" opacity="1"/><line transform="translate(0,150)" x2="-5" y2="0" stroke="#888" stroke-width="1" opacity="1"/><line transform="translate(0,100)" x2="-5" y2="0" stroke="#888" stroke-width="1" opacity="1"/><line transform="translate(0,50)" x2="-5" y2="0" stroke="#888" stroke-width="1" opacity="1"/><line transform="translate(0,0)" x2="-5" y2="0" stroke="#888" stroke-width="1" opacity="1"/></g><g class="mark-text role-axis-label" pointer-events="none"><text text-anchor="end" transform="translate(-7,303)" font-family="sans-serif" font-size="10px" fill="#000" opacity="1">0</text><text text-anchor="end" transform="translate(-7,253)" font-family="sans-serif" font-size="10px" fill="#000" opacity="1">20</text><text text-anchor="end" transform="translate(-7,203.00000000000003)" font-family="sans-serif" font-size="10px" fill="#000" opacity="1">40</text><text text-anchor="end" transform="translate(-7,153)" font-family="sans-serif" font-size="10px" fill="#000" opacity="1">60</text><text text-anchor="end" transform="translate(-7,103.00000000000001)" font-family="sans-serif" font-size="10px" fill="#000" opacity="1">80</text><text text-anchor="end" transform="translate(-7,52.999999999999986)" font-family="sans-serif" font-size="10px" fill="#000" opacity="1">100</text><text text-anchor="end" transform="translate(-7,3)" font-family="sans-serif" font-size="10px" fill="#000" opacity="1">120</text></g><g class="mark-rule role-axis-domain" pointer-events="none"><line transform="translate(0,300)" x2="0" y2="-300" stroke="#888" stroke-width="1" opacity="1"/></g><g class="mark-text role-axis-title" pointer-events="none"><text text-anchor="middle" transform="translate(-27.6845703125,150) rotate(-90) translate(0,-2)" font-family="sans-serif" font-size="11px" font-weight="bold" fill="#000" opacity="1">count</text></g></g><path class="foreground" aria-hidden="true" d="" pointer-events="none" display="none"/></g></g><g class="mark-group role-scope pathgroup" role="graphics-object" aria-roledescription="group mark container"><g transform="translate(0,0)"><path class="background" aria-hidden="true" d="M0,0h400v300h-400Z"/><g><g class="mark-line role-mark marks" role="graphics-symbol" aria-roledescription="line mark container"><path d="M0,297.5L0.12554927809165098,295.4166666666667C0.25109855618330196,293.3333333333333,0.5021971123666039,289.1666666666667,0.7532956685499058,287.9166666666667C1.0043942247332078,286.6666666666667,1.2554927809165097,288.3333333333333,1.5065913370998116,290C1.7576898932831135,291.6666666666667,2.0087884494664157,293.3333333333333,2.2598870056497176,292.0833333333333C2.5109855618330195,290.8333333333333,2.7620841180163214,286.6666666666667,3.0131826741996233,284.1666666666667C3.264281230382925,281.6666666666667,3.515379786566227,280.8333333333333,3.7664783427495294,281.25C4.017576898932831,281.6666666666667,4.268675455116133,283.3333333333333,4.519774011299435,283.75C4.770872567482737,284.1666666666667,5.021971123666039,283.3333333333333,5.273069679849341,282.0833333333333C5.524168236032643,280.8333333333333,5.775266792215945,279.1666666666667,6.026365348399246,279.1666666666667C6.277463904582549,279.1666666666667,6.52856246076585,280.8333333333333,6.779661016949152,282.9166666666667C7.030759573132454,285,7.281858129315755,287.5,7.532956685499059,289.1666666666667C7.78405524168236,290.8333333333333,8.035153797865663,291.6666666666667,9.667294413057126,291.6666666666667C11.299435028248588,291.6666666666667,14.312617702448213,290.8333333333333,15.944758317639675,289.1666666666667C17.57689893283114,287.5,17.82799748901444,285,18.07909604519774,283.75C18.33019460138104,282.5,18.581293157564346,282.5,18.832391713747647,282.0833333333333C19.083490269930948,281.6666666666667,19.33458882611425,280.8333333333333,19.585687382297554,283.3333333333333C19.836785938480855,285.8333333333333,20.087884494664156,291.6666666666667,20.33898305084746,292.9166666666667C20.59008160703076,294.1666666666667,20.841180163214062,290.8333333333333,21.092278719397363,287.5C21.343377275580664,284.1666666666667,21.59447583176397,280.8333333333333,21.845574387947266,280.8333333333333C22.096672944130574,280.8333333333333,22.347771500313872,284.1666666666667,22.598870056497177,285.8333333333333C22.84996861268048,287.5,23.10106716886378,287.5,23.352165725047083,287.9166666666667C23.60326428123038,288.3333333333333,23.854362837413685,289.1666666666667,24.105461393596983,289.5833333333333C24.35655994978029,290,24.607658505963588,290,24.858757062146893,290.4166666666667C25.109855618330197,290.8333333333333,25.360954174513495,291.6666666666667,25.6120527306968,291.6666666666667C25.8631512868801,291.6666666666667,26.1142498430634,290.8333333333333,26.3653483992467,290C26.616446955430007,289.1666666666667,26.867545511613304,288.3333333333333,27.11864406779661,288.3333333333333C27.369742623979914,288.3333333333333,27.620841180163215,289.1666666666667,27.871939736346516,290C28.123038292529817,290.8333333333333,28.37413684871312,291.6666666666667,28.625235404896426,292.0833333333333C28.876333961079723,292.5,29.127432517263028,292.5,29.37853107344633,291.6666666666667C29.62962962962963,290.8333333333333,29.88072818581293,289.1666666666667,30.131826741996232,289.1666666666667C30.382925298179533,289.1666666666667,30.634023854362837,290.8333333333333,30.885122410546142,291.25C31.13622096672944,291.6666666666667,31.387319522912748,290.8333333333333,31.638418079096045,290.4166666666667C31.88951663527935,290,32.14061519146265,290,32.39171374764595,290C32.64281230382925,290,32.89391086001256,290,33.145009416195855,290C33.39610797237916,290,33.64720652856246,290,33.898305084745765,290C34.14940364092906,290,34.40050219711237,290,34.65160075329566,289.5833333333333C34.90269930947897,289.1666666666667,35.15379786566227,288.3333333333333,35.40489642184557,289.5833333333333C35.65599497802887,290.8333333333333,35.90709353421218,294.1666666666667,36.15819209039548,295C36.40929064657879,295.8333333333333,36.66038920276208,294.1666666666667,37.037037037037045,294.1666666666667C37.41368487131199,294.1666666666667,37.915881983678595,295.8333333333333,38.4180790960452,296.6666666666667C38.9202762084118,297.5,39.42247332077841,297.5,39.92467043314501,297.5C40.42686754551161,297.5,40.92906465787822,297.5,41.180163214061515,297.5L41.431261770244824,297.5" stroke="#4c78a8" stroke-width="2"/></g></g><path class="foreground" aria-hidden="true" d="" display="none"/></g><g transform="translate(0,0)"><path class="background" aria-hidden="true" d="M0,0h400v300h-400Z"/><g><g class="mark-line role-mark marks" role="graphics-symbol" aria-roledescription="line mark container"><path d="M0,297.5L0.3766478342749529,297.0833333333333C0.7532956685499058,296.6666666666667,1.5065913370998116,295.8333333333333,2.0087884494664157,290.4166666666667C2.5109855618330195,285,2.7620841180163214,275,3.264281230382925,274.5833333333333C3.7664783427495294,274.1666666666667,4.519774011299435,283.3333333333333,5.147520401757689,288.75C5.775266792215945,294.1666666666667,6.277463904582549,295.8333333333333,7.030759573132454,296.25C7.78405524168236,296.6666666666667,8.788449466415567,295.8333333333333,9.667294413057123,295.4166666666667C10.54613935969868,295,11.299435028248586,295,11.80163214061519,295C12.303829252981794,295,12.554927809165099,295,13.559322033898304,295.4166666666667C14.563716258631514,295.8333333333333,16.321406151914626,296.6666666666667,17.325800376647834,296.6666666666667C18.33019460138104,296.6666666666667,18.581293157564346,295.8333333333333,18.957940991839298,293.75C19.334588826114253,291.6666666666667,19.836785938480855,288.3333333333333,20.21343377275581,288.75C20.59008160703076,289.1666666666667,20.841180163214062,293.3333333333333,21.092278719397363,247.08333333333334C21.343377275580664,200.83333333333334,21.59447583176397,104.16666666666667,21.845574387947266,91.25C22.096672944130574,78.33333333333336,22.347771500313872,149.16666666666669,23.10106716886378,194.58333333333334C23.854362837413685,240,25.109855618330197,260,25.8631512868801,272.5C26.616446955430007,285,26.867545511613304,290,27.369742623979914,290.4166666666667C27.871939736346516,290.8333333333333,28.625235404896426,286.6666666666667,29.50408035153798,287.0833333333333C30.382925298179533,287.5,31.387319522912744,292.5,32.015065913371,292.9166666666667C32.64281230382925,293.3333333333333,32.89391086001256,289.1666666666667,33.145009416195855,289.1666666666667C33.39610797237916,289.1666666666667,33.64720652856246,293.3333333333333,34.149403640929066,295C34.65160075329567,296.6666666666667,35.40489642184557,295.8333333333333,35.90709353421218,293.75C36.40929064657879,291.6666666666667,36.66038920276208,288.3333333333333,37.16258631512869,286.6666666666667C37.664783427495294,285,38.4180790960452,285,39.799121155053356,285C41.180163214061515,285,43.18895166352794,285,71.56308851224105,286.6666666666667C99.93722536095417,288.3333333333333,154.67671060891402,291.6666666666667,183.05084745762713,293.3333333333333C211.42498430634024,295,213.43377275580664,295,215.819209039548,293.3333333333333C218.20464532328938,291.6666666666667,220.9667294413057,288.3333333333333,222.72441933458882,288.3333333333333C224.48210922787192,288.3333333333333,225.23540489642187,291.6666666666667,226.61644695543,290.8333333333333C227.99748901443817,290,230.00627746390458,285,231.88951663527936,285C233.7727558066541,285,235.53044569993722,290,236.53483992467042,291.6666666666667C237.5392341494036,293.3333333333333,237.79033270558693,291.6666666666667,238.29252981795352,291.6666666666667C238.79472693032017,291.6666666666667,239.54802259887006,293.3333333333333,241.18016321406154,294.1666666666667C242.812303829253,295,245.32328939108604,295,246.95543000627745,293.3333333333333C248.58757062146893,291.6666666666667,249.34086629001885,288.3333333333333,250.345260514752,288.3333333333333C251.34965473948523,288.3333333333333,252.60514752040174,291.6666666666667,254.99058380414314,290.8333333333333C257.37602008788446,290,260.89139987445077,285,262.7746390458255,283.3333333333333C264.6578782172003,281.6666666666667,264.9089767733836,283.3333333333333,265.1600753295669,285.8333333333333C265.4111738857502,288.3333333333333,265.66227244193345,291.6666666666667,265.91337099811676,281.6666666666667C266.16446955430007,271.6666666666667,266.4155681104833,248.33333333333334,266.91776522284994,244.16666666666666C267.41996233521655,240,268.1732580037665,255,269.052102950408,265C269.93094789704963,275,270.93534212178275,280,272.4419334588826,284.1666666666667C273.9485247959824,288.3333333333333,275.95731324544886,291.6666666666667,277.71500313873196,293.3333333333333C279.47269303201506,295,280.97928436911485,295,282.10922787193977,293.3333333333333C283.23917137476457,291.6666666666667,283.9924670433145,288.3333333333333,284.49466415568116,284.1666666666667C284.9968612680477,280,285.24795982423103,275,285.75015693659765,273.3333333333333C286.2523540489642,271.6666666666667,287.00564971751413,273.3333333333333,289.51663527934716,277.5C292.0276208411801,281.6666666666667,296.2962962962963,288.3333333333333,298.80728185812933,291.6666666666667C301.3182674199623,295,302.0715630885122,295,304.83364720652855,295C307.5957313245449,295,312.36660389202757,295,315.2542372881356,295C318.14187068424354,295,319.1462649089768,295,320.0251098556183,295C320.9039548022599,295,321.65725047080974,295,323.2893910860012,295C324.9215317011927,295,327.4325172630257,295,329.1902071563088,295C330.947897049592,295,331.9522912743252,295,332.58003766478345,295C333.2077840552417,295,333.458882611425,295,333.7099811676083,294.1666666666667C333.96107972379156,293.3333333333333,334.2121782799749,291.6666666666667,336.34651600753295,290C338.480853735091,288.3333333333333,342.49843063402386,286.6666666666667,345.26051475204014,286.6666666666667C348.0225988700565,286.6666666666667,349.5291902071563,288.3333333333333,351.1613308223478,290C352.79347143753927,291.6666666666667,354.55116133082237,293.3333333333333,356.9365976145637,292.5C359.3220338983051,291.6666666666667,362.33521657250475,288.3333333333333,364.2184557438795,288.3333333333333C366.10169491525426,288.3333333333333,366.8549905838042,291.6666666666667,368.48713119899566,291.6666666666667C370.11927181418713,291.6666666666667,372.6302573760201,288.3333333333333,374.63904582548656,288.3333333333333C376.6478342749529,288.3333333333333,378.15442561205276,291.6666666666667,379.78656622724424,280.8333333333333C381.4187068424357,270,383.17639673571875,245,385.3107344632769,245C387.44507219083494,245,389.9560577526679,270,392.4670433145009,282.5C394.9780288763339,295,397.489014438167,295,398.7445072190835,295L400,295" stroke="#f58518" stroke-width="2"/></g></g><path class="foreground" aria-hidden="true" d="" display="none"/></g></g><g class="mark-group role-legend" role="graphics-symbol" aria-roledescription="legend" aria-label="Symbol legend titled 'flag' for stroke color with 2 values: accepted, failed"><g transform="translate(420,0)"><path class="background" aria-hidden="true" d="M0,0h57v40h-57Z" pointer-events="none"/><g><g class="mark-group role-legend-entry"><g transform="translate(0,16)"><path class="background" aria-hidden="true" d="M0,0h0v0h0Z" pointer-events="none"/><g><g class="mark-group role-scope" role="graphics-object" aria-roledescription="group mark container"><g transform="translate(0,0)"><path class="background" aria-hidden="true" d="M0,0h56.5859375v11h-56.5859375Z" pointer-events="none" opacity="1"/><g><g class="mark-symbol role-legend-symbol" pointer-events="none"><path transform="translate(6,6)" d="M-5,0L5,0" stroke="#4c78a8" stroke-width="1.5" opacity="1"/></g><g class="mark-text role-legend-label" pointer-events="none"><text text-anchor="start" transform="translate(16,9)" font-family="sans-serif" font-size="10px" fill="#000" opacity="1">accepted</text></g></g><path class="foreground" aria-hidden="true" d="" pointer-events="none" display="none"/></g><g transform="translate(0,13)"><path class="background" aria-hidden="true" d="M0,0h56.5859375v11h-56.5859375Z" pointer-events="none" opacity="1"/><g><g class="mark-symbol role-legend-symbol" pointer-events="none"><path transform="translate(6,6)" d="M-5,0L5,0" stroke="#f58518" stroke-width="1.5" opacity="1"/></g><g class="mark-text role-legend-label" pointer-events="none"><text text-anchor="start" transform="translate(16,9)" font-family="sans-serif" font-size="10px" fill="#000" opacity="1">failed</text></g></g><path class="foreground" aria-hidden="true" d="" pointer-events="none" display="none"/></g></g></g><path class="foreground" aria-hidden="true" d="" pointer-events="none" display="none"/></g></g><g class="mark-text role-legend-title" pointer-events="none"><text text-anchor="start" transform="translate(0,9)" font-family="sans-serif" font-size="11px" font-weight="bold" fill="#000" opacity="1">flag</text></g></g><path class="foreground" aria-hidden="true" d="" pointer-events="none" display="none"/></g></g></g><path class="foreground" aria-hidden="true" d="" display="none"/></g></g></g></svg>